<svg width="100" height="132" viewBox="0 0 100 132" fill="none" xmlns="http://www.w3.org/2000/svg">
<g clip-path="url(#clip0_54_231)">
<path d="M31.25 0H0V31.25H31.25V0ZM25 25H6.25V6.25H25V25Z" fill="black"/>
<path d="M18.75 12.5H12.5V18.75H18.75V12.5Z" fill="black"/>
<path d="M68.75 0V31.25H100V0H68.75ZM93.75 25H75V6.25H93.75V25Z" fill="black"/>
<path d="M87.5 12.5H81.25V18.75H87.5V12.5Z" fill="black"/>
<path d="M0 100H31.25V68.75H0V100ZM6.25 75H25V93.75H6.25V75Z" fill="black"/>
<path d="M18.75 81.25H12.5V87.5H18.75V81.25Z" fill="black"/>
<path d="M62.5 0H50V6.25H62.5V0Z" fill="black"/>
<path d="M50 25H56.25V18.75H62.5V12.5H43.75V6.25H37.5V12.5V15.625V18.75H50V25Z" fill="black"/>
<path d="M43.75 25H37.5V31.25H43.75V25Z" fill="black"/>
<path d="M62.5 31.25H56.25V37.5H37.5V43.75H62.5V31.25Z" fill="black"/>
<path d="M6.25 56.25H12.5V50H6.25V37.5H0V62.5H6.25V56.25Z" fill="black"/>
<path d="M18.75 37.5H12.5V43.75H18.75V37.5Z" fill="black"/>
<path d="M37.5 62.5H50V56.25H43.75V50H31.25V37.5H25V50H18.75V62.5H25V56.25H28.125H31.25H37.5V62.5Z" fill="black"/>
<path d="M62.5 50H56.25V62.5H62.5V50Z" fill="black"/>
<path d="M56.25 68.75H37.5V75H50V93.75H37.5V100H56.25V93.75H68.75V87.5H56.25V68.75Z" fill="black"/>
<path d="M43.75 81.25H37.5V87.5H43.75V81.25Z" fill="black"/>
<path d="M68.75 68.75H62.5V81.25H68.75V68.75Z" fill="black"/>
<path d="M93.75 81.25H75V100H81.25V87.5H93.75V81.25Z" fill="black"/>
<path d="M100 93.75H87.5V100H100V93.75Z" fill="black"/>
<path d="M100 68.75H93.75V75H100V68.75Z" fill="black"/>
<path d="M75 75H81.25V56.25H68.75V62.5H75V75Z" fill="black"/>
<path d="M87.5 43.75H81.25V37.5H75V43.75H68.75V50H93.75V43.75H100V37.5H87.5V43.75Z" fill="black"/>
<path d="M100 56.25H87.5V62.5H100V56.25Z" fill="black"/>
</g>
<path d="M18.814 125H17.518V113.444H13.252V112.256H23.08V113.444H18.814V125ZM35.5579 122.984C35.3419 123.308 35.0719 123.614 34.7479 123.902C34.4359 124.19 34.0759 124.442 33.6679 124.658C33.2599 124.862 32.8159 125.024 32.3359 125.144C31.8679 125.264 31.3699 125.324 30.8419 125.324C29.8939 125.324 29.0119 125.156 28.1959 124.82C27.3919 124.484 26.6899 124.022 26.0899 123.434C25.5019 122.834 25.0399 122.126 24.7039 121.31C24.3679 120.494 24.1999 119.6 24.1999 118.628C24.1999 117.656 24.3679 116.762 24.7039 115.946C25.0399 115.13 25.5019 114.428 26.0899 113.84C26.6899 113.24 27.3919 112.772 28.1959 112.436C29.0119 112.1 29.8939 111.932 30.8419 111.932C31.6339 111.932 32.4259 112.088 33.2179 112.4C34.0099 112.712 34.6879 113.228 35.2519 113.948L34.1179 114.794C33.9859 114.59 33.8059 114.386 33.5779 114.182C33.3499 113.978 33.0859 113.798 32.7859 113.642C32.4979 113.486 32.1859 113.36 31.8499 113.264C31.5139 113.168 31.1779 113.12 30.8419 113.12C30.0259 113.12 29.2939 113.27 28.6459 113.57C27.9979 113.87 27.4459 114.272 26.9899 114.776C26.5459 115.28 26.2039 115.868 25.9639 116.54C25.7239 117.2 25.6039 117.896 25.6039 118.628C25.6039 119.36 25.7239 120.062 25.9639 120.734C26.2039 121.394 26.5459 121.976 26.9899 122.48C27.4459 122.984 27.9979 123.386 28.6459 123.686C29.2939 123.986 30.0259 124.136 30.8419 124.136C31.1779 124.136 31.5079 124.106 31.8319 124.046C32.1679 123.986 32.4919 123.884 32.8039 123.74C33.1279 123.596 33.4279 123.404 33.7039 123.164C33.9919 122.912 34.2559 122.6 34.4959 122.228L35.5579 122.984ZM39.0338 117.782H39.0518H39.2138L45.2078 112.256H47.0618L40.6358 118.034L47.4218 125H45.5138L39.2498 118.43H39.0518H39.0338V125H37.7378V112.256H39.0338V117.782ZM52.3517 113.228C51.6557 113.228 51.1037 113.414 50.6957 113.786C50.2997 114.158 49.9997 114.62 49.7957 115.172C49.5917 115.724 49.4597 116.312 49.3997 116.936C49.3517 117.56 49.3277 118.124 49.3277 118.628C49.3277 119.132 49.3517 119.696 49.3997 120.32C49.4597 120.944 49.5917 121.532 49.7957 122.084C49.9997 122.636 50.2997 123.098 50.6957 123.47C51.1037 123.842 51.6557 124.028 52.3517 124.028C53.0477 124.028 53.5937 123.842 53.9897 123.47C54.3977 123.098 54.7037 122.636 54.9077 122.084C55.1117 121.532 55.2377 120.944 55.2857 120.32C55.3457 119.696 55.3757 119.132 55.3757 118.628C55.3757 118.124 55.3457 117.56 55.2857 116.936C55.2377 116.312 55.1117 115.724 54.9077 115.172C54.7037 114.62 54.3977 114.158 53.9897 113.786C53.5937 113.414 53.0477 113.228 52.3517 113.228ZM52.3517 112.04C53.2637 112.04 54.0017 112.25 54.5657 112.67C55.1297 113.09 55.5677 113.624 55.8797 114.272C56.1917 114.92 56.4017 115.634 56.5097 116.414C56.6177 117.182 56.6717 117.92 56.6717 118.628C56.6717 119.336 56.6177 120.08 56.5097 120.86C56.4017 121.628 56.1917 122.336 55.8797 122.984C55.5677 123.632 55.1297 124.166 54.5657 124.586C54.0017 125.006 53.2637 125.216 52.3517 125.216C51.4397 125.216 50.7017 125.006 50.1377 124.586C49.5737 124.166 49.1357 123.632 48.8237 122.984C48.5117 122.336 48.3017 121.628 48.1937 120.86C48.0857 120.08 48.0317 119.336 48.0317 118.628C48.0317 117.92 48.0857 117.182 48.1937 116.414C48.3017 115.634 48.5117 114.92 48.8237 114.272C49.1357 113.624 49.5737 113.09 50.1377 112.67C50.7017 112.25 51.4397 112.04 52.3517 112.04ZM63.6136 125H62.3176V113.876L60.0316 115.892L59.2216 114.92L62.4616 112.256H63.6136V125ZM72.3556 113.228C71.6596 113.228 71.1076 113.414 70.6996 113.786C70.3036 114.158 70.0036 114.62 69.7996 115.172C69.5956 115.724 69.4636 116.312 69.4036 116.936C69.3556 117.56 69.3316 118.124 69.3316 118.628C69.3316 119.132 69.3556 119.696 69.4036 120.32C69.4636 120.944 69.5956 121.532 69.7996 122.084C70.0036 122.636 70.3036 123.098 70.6996 123.47C71.1076 123.842 71.6596 124.028 72.3556 124.028C73.0516 124.028 73.5976 123.842 73.9936 123.47C74.4016 123.098 74.7076 122.636 74.9116 122.084C75.1156 121.532 75.2416 120.944 75.2896 120.32C75.3496 119.696 75.3796 119.132 75.3796 118.628C75.3796 118.124 75.3496 117.56 75.2896 116.936C75.2416 116.312 75.1156 115.724 74.9116 115.172C74.7076 114.62 74.4016 114.158 73.9936 113.786C73.5976 113.414 73.0516 113.228 72.3556 113.228ZM72.3556 112.04C73.2676 112.04 74.0056 112.25 74.5696 112.67C75.1336 113.09 75.5716 113.624 75.8836 114.272C76.1956 114.92 76.4056 115.634 76.5136 116.414C76.6216 117.182 76.6756 117.92 76.6756 118.628C76.6756 119.336 76.6216 120.08 76.5136 120.86C76.4056 121.628 76.1956 122.336 75.8836 122.984C75.5716 123.632 75.1336 124.166 74.5696 124.586C74.0056 125.006 73.2676 125.216 72.3556 125.216C71.4436 125.216 70.7056 125.006 70.1416 124.586C69.5776 124.166 69.1396 123.632 68.8276 122.984C68.5156 122.336 68.3056 121.628 68.1976 120.86C68.0896 120.08 68.0356 119.336 68.0356 118.628C68.0356 117.92 68.0896 117.182 68.1976 116.414C68.3056 115.634 68.5156 114.92 68.8276 114.272C69.1396 113.624 69.5776 113.09 70.1416 112.67C70.7056 112.25 71.4436 112.04 72.3556 112.04ZM83.6175 125H82.3215V113.876L80.0355 115.892L79.2255 114.92L82.4655 112.256H83.6175V125Z" fill="black"/>
<defs>
<clipPath id="clip0_54_231">
<rect width="100" height="100" fill="white"/>
</clipPath>
</defs>
</svg>
